 <svg width="39" xmlns="http://www.w3.org/2000/svg" height="27.815" id="screenshot-b884e6d4-9886-8029-8005-eab4e6fc9410" viewBox="236 1038.094 39 27.815"   fill="none" version="1.1">
    <g id="shape-b884e6d4-9886-8029-8005-eab4e6fc9410">
      <defs></defs>
      <g class="fills" id="fills-b884e6d4-9886-8029-8005-eab4e6fc9410">
        <path d="M244.625,1054.500L251.750,1061.625C252.250,1062.125,252.490,1062.708,252.470,1063.375C252.450,1064.042,252.210,1064.625,251.750,1065.125C251.250,1065.625,250.657,1065.886,249.970,1065.908C249.283,1065.929,248.689,1065.689,248.188,1065.188L236.750,1053.750C236.250,1053.250,236.000,1052.667,236.000,1052.000C236.000,1051.333,236.250,1050.750,236.750,1050.250L248.188,1038.813C248.688,1038.313,249.282,1038.073,249.970,1038.095C250.658,1038.117,251.252,1038.377,251.750,1038.875C252.208,1039.375,252.448,1039.958,252.470,1040.625C252.492,1041.292,252.252,1041.875,251.750,1042.375L244.625,1049.500L272.500,1049.500C273.208,1049.500,273.802,1049.740,274.282,1050.220C274.762,1050.700,275.002,1051.293,275.000,1052.000C274.998,1052.707,274.758,1053.301,274.280,1053.783C273.802,1054.264,273.208,1054.503,272.500,1054.500Z" style="fill:#31efb8;fill-opacity:1"></path>
      </g>
    </g>
  </svg>
