<svg width="38" xmlns="http://www.w3.org/2000/svg" height="42" id="screenshot-b884e6d4-9886-8029-8005-eab4e6fc940d" viewBox="537 1031 38 42" style="-webkit-print-color-adjust::exact" xmlns:xlink="http://www.w3.org/1999/xlink" fill="none" version="1.1">

    <g id="shape-b884e6d4-9886-8029-8005-eab4e6fc940d">
      <defs></defs>
      <g class="fills" id="fills-b884e6d4-9886-8029-8005-eab4e6fc940d">
      
        <path d="M551.903,1031.000C549.054,1031.011,546.573,1031.235,545.448,1031.312C542.448,1031.518,538.314,1031.905,537.907,1033.037C537.000,1035.563,539.765,1036.178,543.881,1037.037C549.409,1038.189,548.682,1040.873,548.822,1043.856C549.002,1047.699,550.549,1050.485,554.549,1051.161C558.503,1051.829,555.907,1058.615,546.105,1061.053C536.837,1063.357,537.000,1072.039,537.000,1072.039L574.953,1073.000C574.953,1073.000,575.511,1069.979,572.790,1066.477C570.069,1062.975,561.698,1063.071,561.209,1058.340C561.107,1053.123,564.375,1050.135,568.390,1050.194C569.598,1050.194,570.578,1049.245,570.578,1048.075C570.867,1045.975,567.293,1046.488,567.464,1045.571C567.815,1044.729,569.657,1046.147,570.699,1046.165C572.067,1046.165,573.176,1045.091,573.176,1043.766C573.176,1042.441,572.067,1041.367,570.699,1041.367C569.976,1041.359,568.050,1042.424,567.990,1041.865C569.605,1040.592,572.454,1040.408,572.529,1037.988C572.529,1036.166,571.004,1034.689,569.123,1034.689C567.776,1034.689,566.556,1035.457,566.010,1036.648C565.760,1036.046,565.340,1035.287,564.628,1034.376C562.419,1031.554,556.651,1030.982,551.903,1031.000ZZZ" style="fill:#0468bf;fill-opacity:1"></path>
        
        
      </g>
    </g>
    
  </svg>

  